<?xml version="1.0" encoding="utf-8"?>
<!-- Generator: Adobe Illustrator 16.0.3, SVG Export Plug-In . SVG Version: 6.00 Build 0)  -->
<!DOCTYPE svg PUBLIC "-//W3C//DTD SVG 1.1//EN" "http://www.w3.org/Graphics/SVG/1.1/DTD/svg11.dtd">
<svg version="1.1" id="Layer_1" xmlns="http://www.w3.org/2000/svg" xmlns:xlink="http://www.w3.org/1999/xlink" x="0px" y="0px"
	 width="65px" height="63px" viewBox="0 0 65 63" enable-background="new 0 0 65 63" xml:space="preserve">
<g>
	<g>
		<path fill="#1C2674" d="M50.563,51.206v-3.055c1.698-1.646,7.885-6.816,7.885-10.158c0-1.672-1.487-2.457-2.977-2.457
			c-1.538,0-3.002,0.68-4.201,1.465l-0.288-3.029c1.646-0.836,3.551-1.306,5.403-1.306c3.475,0,5.72,1.749,5.72,5.327
			c0,3.865-3.891,7.418-6.866,10.34h7.441v2.873H50.563z"/>
		<path fill="#06773D" d="M24.115,45.481c0.127,0.549,0.127,1.418-0.469,2.537c-0.564,1.074-0.345,2.303-0.219,2.787
			c0.035,0.139,0.15,0.238,0.195,0.246c0.294,0.08,0.511,0.102,0.511,0.102c-0.164,1.705,1.217,3.471,1.415,3.664
			c0.191,0.193,0.39,0.15,0.624,0.051c0.229-0.098,0.328-0.146,0.328-0.146c0.331,0.557,1.216,1.215,1.546,1.344
			c0.326,0.135,0.36,0.086,0.56-0.043c0.194-0.135,0.393-0.299,0.393-0.299c1.579,2.17,4.146,2.811,4.799,2.926
			c0.362,0.066,0.461-0.197,0.231-0.494c-0.231-0.293-0.642-0.77-0.804-1.623c-0.308-1.541,0-2.096,0.257-2.166
			c0.271-0.068,0.301-0.197,0.271-0.592c-0.114-1.346-0.563-2.434-0.727-2.76c-0.164-0.33,0-0.363,0.263-0.33
			c0.386,0.051,0.391,0.018,0.326-0.363c-0.21-1.285-1.444-2.463-1.874-2.826c-0.427-0.359-0.297-0.398,0.135-0.459
			c0.412-0.061,0.424-0.135,0.272-0.58c-0.192-0.564-1.014-1.848-2.791-2.639c-1.9-0.842-5.007-0.445-5.007-0.445
			c0.701-0.439,2.411-1.135,3.631-1.434c1.614-0.402,3.316-0.025,4.47,0.828c1.354,1.004,2.011,4.156,2.458,5.396
			c0.598,1.639,1.55,1.674,1.55,1.674c0.299-0.096,0.426-0.531,0.426-0.531c1.318,1.396,3.723,2.209,4.604,2.363
			c0.322,0.059,0.531,0.074,0.531-0.219c0-0.266,0.036-0.307,0.036-0.307c0.484,0.049,1.186,0.088,2.453,0.748
			c1.275,0.654,1.799,1.578,1.976,2.105c0.175,0.525,0.526,0.301,0.567-0.047c0.357-2.836-0.448-5.105-0.448-5.105
			s0.448,0.055,0.714,0.055c0.262,0,0.305-0.166,0.262-0.426c-0.314-1.895-1.445-3.688-1.445-3.688
			c0.37,0.016,0.561,0.055,0.628-0.051c0.089-0.141-0.15-0.586-0.248-0.707c-3.294-4.115-7.31-4.193-8.889-4.193
			c-1.576,0-3.021,0.26-4.953,0.701c-1.93,0.436-2.845,0.113-3.64-0.355c-0.999-0.582-1.386-2.049-1.386-2.049
			c-2.234,2.598-4.919,1.818-4.919,1.818c-1.359,1.928-3.906,3.74-3.906,3.74c-0.329-0.635-0.31-1.752-0.22-2.365
			c0.089-0.615-0.01-1.723-0.267-2.674c-0.377-1.443-1.827-2.852-2.655-3.416c-1.314-0.883-3.585-1.43-5.016-1.549
			c-1.185-0.102-1.837-0.27-2.549-0.523c-0.935-0.326-1.354-0.782-1.62-1.044c-0.26-0.265-0.658-0.086-0.611,0.219
			c0.186,1.214,1.029,2.63,1.029,2.63c-0.261-0.1-0.458,0.195-0.395,0.457c0.313,1.266,0.788,1.906,0.788,1.906
			c-0.459-0.096-0.524,0.365-0.524,0.529c0,1.383,0.953,2.371,1.185,2.564c0.226,0.195,0.129,0.266-0.034,0.328
			c-0.484,0.193-0.401,0.496-0.264,0.658c0.379,0.471,1.843,1.547,2.631,1.906c2.021,0.926,4.472,0.791,5.562,0.691
			c1.086-0.1,1.869,0.393,1.869,0.393c-0.162,0.064-3.849,2.467-4.242,2.668c-0.395,0.193-0.724,0.066-0.922-0.033
			c-0.577-0.291-1.113-0.891-1.381-1.152c-0.263-0.262-0.492-0.131-0.492,0.164c0,0.293-0.066,1.58-0.032,1.906
			c0.032,0.332-0.199,0.461-0.332,0.523C6.416,50.442,4.284,49.7,3.695,49.63c-0.601-0.064-1.056-0.064-1.186,0.299
			c-0.129,0.359,0.213,0.672,1.582,1.225c1.622,0.66,2.696,1.467,3.645,2.061c0.737,0.467,1.119,0.068,1.38-0.195
			c2.141-2.139,4.371-3.479,5.012-3.848c0.119-0.064,0.301-0.061,0.356-0.039c0.497,0.217,0.687,0.697,0.687,0.697
			c0.211,0.689-0.185,1.094-0.599,1.939c-0.571,1.193-0.679,2.139-0.549,2.568c0.133,0.426,0.472,0.301,0.602,0.205
			c0.127-0.096,0.214-0.037,0.217,0.127c0.015,1.91,1.054,3.115,1.315,3.348c0.264,0.23,0.298,0.23,0.462,0.064
			s0.33-0.494,0.33-0.494c0.095,0.232,0.52,1.217,1.112,1.877c0.595,0.656,0.841,1.457,0.987,2.072
			c0.108,0.441,0.197,0.492,0.431,0.098c0.229-0.396,1.232-2.408,1.232-2.408c0.459,0.328,0.541,0.4,0.769,0.172
			c1.369-1.363,1.468-4.102,1.468-4.4c0-0.293,0-0.328,0.198-0.227c0.196,0.098,0.345,0,0.357-0.229
			c0.034-0.428,0.267-1.744-0.521-3.42c-0.999-2.115-2.634-2.369-4.802-2.467c-2.531-0.119-2.482-0.568-2.482-0.568
			c1.873-1.186,5.819-3.451,6.18-3.621c0.362-0.16,0.465-0.305,1.086-0.064C23.407,44.575,23.996,44.972,24.115,45.481"/>
		<path fill="#7C192A" d="M30.754,1.889c1.543,0.618,2.276,1.938,2.237,3.685C32.951,7.48,32.039,8.96,31.71,9.287
			c-0.328,0.329-0.726,0.296-1.285,0.1c-0.56-0.199-1.28-0.524-2.302-0.524c-1.016,0-1.978,0.421-2.565,1.016
			c0,0-1.477-0.068-2.496,0.328c-1.021,0.396-1.384,0.628-1.644,0.792c0,0-1.073-0.052-2.041-0.527
			c-1.122-0.551-3.583-2.236-3.583-4.702c0-2.467,2.109-3.333,3.446-3.305c1.051,0.026,1.907,0.276,2.829,0.503
			c0.922,0.23,1.62,0.277,2.079,0.234c0.642-0.058,1.542-0.229,2.233-0.719c0.546-0.389,1.52-0.782,2.268-0.859
			C29.477,1.546,30.263,1.69,30.754,1.889"/>
		<path fill="#7C192A" d="M36.443,4.454c1.778,0,2.709,0.839,3.325,2.6c0.261,0.755,0.486,2.118,2.201,2.498
			c2.123,0.466,3.305,1.136,3.98,2.171c0.54,0.827,0.527,2.135,0.291,2.923c-0.225,0.791-0.394,1.283,0.264,2.007
			c0.568,0.624,0.96,1.645,0.463,2.993c-0.49,1.348-1.815,2.527-4.374,2.665c-1.216,0.065-2.961-0.179-2.858-0.789
			c0.033-0.196,0.146-0.356,0.61-0.879c0.317-0.371,0.535-0.927,0.607-1.457c0.11-0.845-0.3-1.691-0.971-2.426
			c-0.367-0.395-0.476-0.761-0.245-1.485c0.233-0.723,0.292-1.153,0.292-2.008c0-1.053-0.693-2.412-1.87-2.786
			c-1.449-0.459-3.03-0.206-4.28,0.881c0,0-1.117-0.79-1.117-2.335C32.762,7.478,34.371,4.454,36.443,4.454"/>
		<path fill="#B81F32" d="M44.843,24.254c0.664,1.021,0.721,3.254-0.359,5.032c-1.575,2.599-4.061,2.359-4.061,2.359
			c-0.26,3.715-3.467,4.446-5.215,4.446c-4.602,0-4.715-3.624-4.715-4.019c0-0.391-0.233-0.461-0.394-0.33
			c-1.115,0.892-1.645,2.5-1.709,3.817c-0.068,1.316,0.229,2.301,0.462,2.695c0.713,1.229,1.804,1.939,4.207,1.35
			c2.396-0.596,4.521-0.803,6.528-0.504c2.011,0.297,2.955-0.316,3.307-1.371c0.31-0.949,1.021-1.713,2.05-2.266
			c2.859-1.508,2.353-3.752,2.158-4.739c-0.199-0.963,0.409-1.438,0.82-1.904c1.605-1.856,1.94-4.247,0.883-5.592
			c-1.051-1.351-3.015-1.025-4.071-0.855c-0.628,0.1-1.282,0.394-1.55,0.525C43.184,22.898,44.105,23.112,44.843,24.254"/>
		<path fill="#B81F32" d="M28.258,32.436c-0.049,1.265-0.577,4.95-2.629,6.144c-0.855,0.502-2.765,0.795-4.638,0.074
			c-1.876-0.727-2.768-1.994-3.259-2.535c-0.933-1.045-2.183-2.33-5.26-2.797c-2.9-0.443-5.454-1.667-5.006-4.833
			c0.382-2.74,3.049-3.382,4.525-3.341c0.214,0.008,0.614,0.177,0.741,0.377c0.36,0.566,1.172,1.717,2.144,2.324
			c1.318,0.825,2.854,1.096,4.337,1.104c0,0,0.697,3.027,3.089,4.043C24.263,33.823,26.466,33.495,28.258,32.436"/>
		<path fill="#B81F32" d="M12.014,6.524c1.901,0,4.67,1.118,5.129,3.878c0,0-1.892-0.844-2.927,0.46
			c-0.918,1.156-0.301,2.601-0.068,3.358c0.23,0.757,0.418,1.452,0.23,2.103c-0.214,0.731-0.574,1.194-1.844,1.973
			c-1.104,0.687-1.383,1.848-1.442,2.6c-0.118,1.385,0.363,2.858,1.411,3.678c0,0-1.628,0.637-3.387-0.061
			c-1.945-0.772-3.026-2.438-3.026-4.504c0-2.074,1.183-3.191,1.581-3.62c0.394-0.427,0.821-1.113,0.821-1.807
			c0-0.687-0.375-1.212-0.558-1.58c-0.314-0.616-0.672-1.634-0.349-3.081C7.844,8.801,9.185,6.524,12.014,6.524"/>
		<path fill="#B81F32" d="M15.333,12.51c-0.336,0.894-0.127,1.445,0.168,2.204c0.294,0.758,0.558,1.74-0.727,2.793
			c-1.284,1.053-2.551,1.848-2.451,3.922c0.1,2.071,1.571,4.86,3.568,5.938c1.532,0.833,2.633,0.89,3.783,0.791
			c0,0,1.006,2.892,3.338,3.887c1.629,0.697,4.139,0.954,6.397-0.924c0.791-0.657,1.724-2.49,1.56-4.101
			c0,0-2.761,0.229-5.525-0.727c-2.761-0.952-5.555-3.022-6.442-5.523c-0.888-2.499-1.202-6.318,1.526-9.182
			c0,0-1.072-0.623-2.268-0.725C17.128,10.777,15.795,11.294,15.333,12.51"/>
		<path fill="#7C192A" d="M33.224,12.806c-0.741-1.44-2.316-3.425-5-3.289c-0.803,0.042-1.907,0.558-2.302,1.053
			c0,0-1.271-0.031-2.205,0.231c-1.198,0.337-2.444,1.058-3.305,2.569c-0.853,1.513-1.166,2.691-1.166,4.171
			c0,2.078,1.077,4.647,3.124,6.084c0.329,0.229,0.414-0.059,0.344-0.617c-0.064-0.561-0.446-2.838,0.627-5.033
			c1.232-2.525,3.356-4.078,5.685-4.832C30.427,12.688,32.334,12.674,33.224,12.806"/>
		<path fill="#B81F32" d="M28.519,14.055c-2.072,0.956-4.944,3.648-5.131,7.071c-0.162,3.022,1.185,4.863,5.23,5.028
			c4.046,0.162,8.061-2.664,8.22-2.762c0.164-0.099,0.134-0.329-0.328-0.229c-0.46,0.101-3.252,0.463-4.937,0.396
			c-1.674-0.069-3.54-0.592-4.368-1.876C26.296,20.277,25.988,17.901,28.519,14.055"/>
		<path fill="#B81F32" d="M34.939,15.04c1.143,1.309,0.983,3.078-0.133,5.051c-1.117,1.972-2.686,2.434-3.703,2.368
			c-1.022-0.065-1.424-0.2-1.893-0.416c0,0,1.849-0.131,2.988-1.47c0.802-0.943,0.694-2.173,0.222-2.983
			c-0.29-0.484-0.756-0.861-1.101-1.073c-0.809-0.502-2.307-0.688-3.095-0.393c0,0,1.25-2.202,3.781-2.202
			C33.224,13.923,34.214,14.22,34.939,15.04"/>
		<path fill="#B81F32" d="M28.261,16.453c-0.593,0.53-0.971,1.384-1.024,2.142c-0.061,0.904,0.23,1.773,1.021,2.233
			c0.788,0.46,2.18,0.236,2.779-0.32c0.674-0.626,0.692-1.399,0.657-1.653c-0.056-0.431-0.364-0.856-0.973-0.732
			c-0.474,0.099-0.856,0.083-1.133,0.017C29.27,18.066,28.501,17.813,28.261,16.453"/>
		<path fill="#7C192A" d="M38.152,11.227c1.149,0.604,1.348,1.775,0.992,3.088c-0.36,1.318-0.563,1.843,0.295,2.96
			c0.855,1.122,0.493,2.698,0,3.356c-0.493,0.657-1.518,1.806-3.585,2.004c-2.073,0.199-2.469-0.1-2.469-0.1s1.465-0.91,2.512-2.729
			c0.679-1.169,1.04-2.522,0.711-3.811c-0.474-1.87-2.437-2.404-3.257-2.404c0,0,0.361-1.61,1.581-2.2
			C36.146,10.8,37.465,10.863,38.152,11.227"/>
		<path fill="#B81F32" d="M31.482,26.255c0.234,0.654,0.599,1.622-0.038,3.059c-0.537,1.221-0.723,3.356,0.793,4.797
			c1.515,1.449,3.969,1.107,4.983,0.6c1.182-0.592,1.643-1.74,1.889-3.029c0.122-0.637,0.454-0.869,1.214-0.89
			c0.766-0.019,2.32-0.262,3.307-1.868c0.791-1.281,1.12-3.154,0.314-4.444c-0.904-1.446-3.326-1.818-4.344-1.712
			c-0.623,0.067-1.086,0.229-1.48,0.595C37.728,23.722,35.358,25.894,31.482,26.255"/>
		<path fill="#0C412E" d="M31.86,40.687c0.251-0.037,0.521-0.086,0.812-0.152c1.934-0.438,3.378-0.699,4.954-0.699
			c1.582,0,5.595,0.076,8.889,4.193c0.099,0.121,0.337,0.566,0.247,0.707c-0.066,0.105-0.257,0.068-0.627,0.049
			c0,0,1.131,1.795,1.445,3.688c0.043,0.264,0,0.43-0.262,0.43c-0.266,0-0.714-0.057-0.714-0.057s0.808,2.27,0.448,5.105
			c-0.02,0.188-0.132,0.34-0.256,0.354c0,0-0.799-2.129-1.521-3.348c-1.094-1.836-2.141-3.732-4.376-5.902
			c-2.001-1.945-4.19-3.215-7.386-3.74c-0.474-0.105-2.58-0.574-2.58-0.574C31.215,40.747,31.517,40.729,31.86,40.687"/>
		<path fill="#0C412E" d="M19.467,59.509c0,0,0.608-3-0.267-6.188c-1.153-4.221-3.292-4.488-3.292-4.488s-0.328-0.16-0.211-0.748
			c0,0-0.049,0.451,2.482,0.57c2.168,0.098,3.804,0.352,4.803,2.467c0.786,1.676,0.553,2.99,0.52,3.42
			c-0.012,0.229-0.161,0.326-0.357,0.229c-0.198-0.102-0.198-0.066-0.198,0.227c0,0.299-0.099,3.037-1.468,4.4
			c-0.227,0.229-0.309,0.156-0.769-0.172c0,0-1.002,2.012-1.231,2.408c-0.159,0.275-0.249,0.332-0.33,0.201
			C19.15,61.835,19.266,60.489,19.467,59.509"/>
		<path fill="#0C412E" d="M6.012,32.045c0,0,0.269-0.152,0.484,0.074c0.26,0.266,0.685,0.718,1.62,1.044
			c0.713,0.256,1.364,0.422,2.549,0.523c1.43,0.117,3.701,0.666,5.017,1.551c0.827,0.563,2.276,1.971,2.654,3.414
			c0.257,0.951,0.356,2.059,0.267,2.674c-0.09,0.615-0.107,1.732,0.22,2.365L18.1,43.095c0,0-0.62-0.611-2.817-2.137
			c-3.136-2.182-2.06-1.436-4.175-3.025c-0.562-0.42-2.565-1.916-4.215-4.754C6.765,32.96,6.263,32.17,6.012,32.045"/>
		<path fill="#0C412E" d="M24.35,43.374c0,0,3.108-0.4,5.007,0.443c1.777,0.791,2.599,2.074,2.792,2.639
			c0.149,0.447,0.138,0.52-0.274,0.58c-0.431,0.061-0.562,0.1-0.134,0.459c0.428,0.363,1.663,1.541,1.873,2.826
			c0.064,0.381,0.06,0.414-0.326,0.361c-0.263-0.031-0.427,0-0.263,0.332c0.164,0.326,0.612,1.414,0.727,2.76
			c0.029,0.393,0,0.525-0.271,0.592c-0.257,0.07-0.563,0.623-0.257,2.168c0.162,0.852,0.57,1.328,0.805,1.621
			c0.144,0.193,0.158,0.367,0.053,0.451c0,0-1.271-0.535-2.589-1.957c0,0-2.936-3.01-3.845-6.75c-1.114-4.596-3.22-5.732-3.22-5.732
			C24.172,43.915,24.009,43.536,24.35,43.374"/>
		<path fill="#FFFFFF" d="M18.9,48.505c-1.278-0.049-1.864-0.426-1.864-0.426c1.914-1.283,3.179-1.973,3.725-2.291
			c0.535-0.309,1.177-0.516,2.008-0.412c0.48,0.061,1.123,0.436,1.238,0.947c0.127,0.564-0.431,1.23-0.929,2.416
			c-0.204,0.5-0.166,1.119-0.067,1.654C22.195,49.183,21.159,48.601,18.9,48.505 M21.608,40.142
			c-0.88,2.043-2.614,3.068-2.614,3.068c-0.079-0.594-0.067-0.953,0.023-1.572c0.087-0.607,0.106-2.055-0.167-2.912
			C19.678,39.612,20.69,39.987,21.608,40.142 M7.153,16.262c-1.01,1.221-1.656,2.257-1.854,3.454
			c-0.168,1.013-0.192,3.805,1.859,4.778c1.46,0.698,2.944,0.479,2.944,0.479s-2,0.733-2.951,2.167
			c-0.969,1.469-0.813,3.574-0.264,4.345c0.036,0.054-0.043-0.063,0,0c-0.314-0.252-1.238-0.489-1.372-0.146
			c-0.487,1.262,0.853,3.525,0.853,3.525c-0.334,0.109-0.442,0.512-0.329,0.916c0.14,0.502,0.727,1.6,0.727,1.6
			c-0.462-0.045-0.575,0.527-0.55,0.898c0.075,1.074,0.611,1.791,1.194,2.449c0.199,0.229-0.312,0.16-0.455,0.615
			c-0.218,0.68,1.718,1.963,1.905,2.066c1.03,0.586,1.899,0.939,2.761,1.109c2.156,0.43,3.667-0.145,4.769-0.109
			c0.611,0.023,0.32,0.379,0.32,0.379c-0.17,0.068-3.094,1.949-3.512,2.072c-0.434,0.129-0.53-0.084-0.72-0.207
			c-0.378-0.242-0.475-0.441-0.744-0.678c-0.32-0.277-0.599-0.496-1.024-0.313C10,45.97,10.21,47.454,10.104,47.815
			c-0.161,0.594-0.887,0.943-2.19,1.387c-1.775,0.607-2.507,0.488-3.776,0.311c-1.296-0.178-2.009-0.027-1.992,0.686
			c0.026,0.848,2.094,1.568,3.078,2.205c1.049,0.672,2.084,1.654,2.084,1.654s1.209,1.166,2.291-0.063
			c1.813-2.057,2.402-2.619,3.189-3.201c-0.257,0.195,1.241-0.943,1.628-0.875c0.621,0.111,0.358,0.971,0.358,0.971
			c-0.134,0.504-0.295,0.84-0.711,1.703c-0.583,1.207-0.301,2.652-0.169,3.09c0.129,0.43,0.558-0.027,0.694-0.127
			c0.127-0.092,0.097,0.602,0.111,0.762c0.177,1.723,1.225,2.793,1.49,3.025c0.269,0.229,0.267,0.09,0.416-0.092
			c0.105-0.129,0.177-0.449,0.177-0.449c0.096,0.234,0.636,0.951,1.24,1.707c0.313,0.396,0.596,1.031,0.767,1.547
			c0.126,0.395,0.136,0.635,0.416,0.551c0.459-0.139,1.549-2.197,1.549-2.197c0.285,0.291,0.604,0.564,0.834,0.334
			c1.384-1.383,1.728-4.367,1.728-4.668c0-0.295,0.068-0.461,0.268-0.365c0.198,0.102,0.365,0.127,0.422-0.098
			c0.089-0.369,0.216-1.09,0.114-2.049l0.407,1.043c0.251,0.623,0.752,1.252,1.368,1.072c0.307-0.086,0.629-0.367,0.629-0.367
			c0.352,0.535,0.653,0.912,1.012,1.205c0.352,0.285,0.85,0.58,1.096,0.51c0.284-0.08,0.387-0.596,0.387-0.596
			c1.183,1.48,1.756,1.949,3.357,2.691c0.744,0.346,3.268,1.016,3.08,0.15c-0.049-0.238-1.088-1.012-1.625-2.182
			c-0.243-0.535-0.509-1.436-0.348-1.715c0.137-0.234,0.577-0.053,0.851-0.352c0.191-0.215,0.234-0.701-0.041-1.941
			c-0.121-0.561-0.865-1.756-0.604-1.676c0.632,0.186,1.038-0.02,0.649-1.121c-0.332-0.938-0.752-1.436-1.221-1.939
			c-0.391-0.416-1.191-0.73-0.761-0.793c0.42-0.059,0.91,0.102,0.648-0.873c-0.151-0.582-1.304-2.115-3.105-2.914
			c-1.927-0.855-3.754-0.609-3.754-0.609c1.091-0.322,1.27-0.381,2.166-0.512c1.101-0.162,2.638-0.199,4.394,1.25
			c1.309,1.084,1.89,4.348,2.35,5.6c0.604,1.664,1.501,1.281,1.501,1.281c0.297-0.102,0.505-0.693,0.505-0.693
			c1.057,0.963,1.357,1.305,3.252,2.199c0.667,0.314,1.758,0.563,2.042,0.477c0.528-0.166,0.13-1.016,0.13-1.016
			c0.491,0.045,1.064,0.002,2.086,0.727c1.31,0.926,1.54,2.32,1.685,2.975c0.549,2.438,1.319-0.434,1.452-1.684
			c0.306-2.949-0.543-4.285-0.543-4.285s0.417,0.277,0.702,0.264c0.335-0.014,0.568-0.354,0.552-0.736
			c-0.09-1.656-1.604-3.637-1.604-3.637c0.371,0.113,0.635,0.158,0.754,0.113c0.62-0.242,0.303-0.873,0.116-1.137
			c-1.707-2.35-3.887-3.541-5.751-4.18c0.62-0.16,1.008-0.434,1.298-0.729c0.549-0.547,0.815-2.113,1.355-2.557
			c0.758-0.629,2.436-1.035,2.97-1.818c0.515-0.75,0.596-1.844,0.263-2.829c-0.324-0.988-0.18-1.499,0.149-2.157
			c0.327-0.66,2.336-2.149,2.785-3.963c0.188-0.748,0.389-2.55-1.116-3.568c-1.54-1.042-4.313-0.579-4.313-0.579
			s2.515-0.69,2.914-2.949c0.282-1.585-1.51-2.567-1.625-3.435c-0.132-0.958,1.4-2.232,0.745-3.828
			c-0.524-1.267-1.538-1.66-3.072-2.098c-1.533-0.436-2.088-0.537-2.851-1.524c-0.772-0.984-0.872-2.636-1.526-3.407
			c-0.715-0.83-1.32-1.341-2.644-1.328c-0.938,0.015-1.771,0.268-2.845,1.367c-0.9,0.914-1.201,2.058-1.201,2.058
			S33.7,4.354,33.1,2.756c-0.361-0.964-1.191-1.97-2.971-1.979c-1.355-0.005-2.465,0.616-3.422,1.092
			c-1.179,0.598-1.685,1.241-4.556,0.335c-3.064-0.967-5.344-0.561-6.233,0.443c-0.713,0.808-0.881,1.858-0.688,2.851
			c0.16,0.865,0.736,1.726,0.736,1.726s-3.141-1.414-5.334-0.974c-2.194,0.439-3.897,1.685-4.179,3.53
			c-0.217,1.419,0.273,2.561,0.77,3.294c0.496,0.728,0.849,1.744,0.629,2.184C7.681,15.587,7.455,15.926,7.153,16.262"/>
		<path fill="#007D43" d="M24.2,45.476c0.127,0.549,0.127,1.416-0.468,2.537c-0.565,1.074-0.345,2.303-0.22,2.787
			c0.036,0.139,0.15,0.238,0.195,0.246c0.294,0.08,0.511,0.102,0.511,0.102c-0.164,1.707,1.217,3.471,1.415,3.666
			c0.193,0.193,0.392,0.15,0.624,0.049c0.23-0.098,0.33-0.146,0.33-0.146c0.329,0.557,1.216,1.217,1.545,1.346
			c0.326,0.137,0.359,0.084,0.559-0.043c0.194-0.137,0.394-0.301,0.394-0.301c1.579,2.172,4.149,2.813,4.8,2.928
			c0.363,0.064,0.462-0.199,0.233-0.492c-0.233-0.295-0.644-0.771-0.804-1.625c-0.309-1.543,0-2.098,0.256-2.168
			c0.273-0.066,0.302-0.197,0.273-0.59c-0.116-1.348-0.563-2.434-0.729-2.762c-0.164-0.33,0-0.365,0.264-0.33
			c0.385,0.051,0.392,0.018,0.327-0.363c-0.212-1.285-1.447-2.465-1.875-2.826c-0.428-0.361-0.296-0.398,0.134-0.461
			c0.413-0.061,0.424-0.133,0.273-0.58c-0.192-0.563-1.014-1.846-2.792-2.637c-1.899-0.844-5.007-0.445-5.007-0.445
			c0.701-0.439,2.41-1.137,3.632-1.436c1.615-0.404,3.317-0.025,4.471,0.828c1.354,1.004,2.01,4.158,2.459,5.398
			c0.597,1.641,1.549,1.676,1.549,1.676c0.299-0.098,0.426-0.533,0.426-0.533c1.317,1.398,3.725,2.209,4.605,2.365
			c0.324,0.057,0.531,0.072,0.531-0.219c0-0.268,0.038-0.307,0.038-0.307c0.482,0.045,1.185,0.086,2.454,0.746
			c1.272,0.656,1.799,1.578,1.976,2.105c0.173,0.525,0.524,0.303,0.567-0.047c0.356-2.836-0.449-5.107-0.449-5.107
			s0.449,0.059,0.714,0.059c0.259,0,0.307-0.168,0.259-0.43c-0.312-1.895-1.439-3.688-1.439-3.688
			c0.366,0.018,0.556,0.055,0.624-0.051c0.09-0.141-0.149-0.584-0.248-0.707c-3.295-4.117-7.311-4.193-8.891-4.193
			c-1.574,0-3.021,0.262-4.955,0.699c-1.93,0.438-2.844,0.115-3.638-0.354c-1-0.582-1.387-2.049-1.387-2.049
			c-2.234,2.598-4.921,1.82-4.921,1.82c-1.36,1.926-3.906,3.738-3.906,3.738c-0.329-0.635-0.31-1.752-0.221-2.365
			c0.09-0.615-0.01-1.723-0.267-2.674c-0.379-1.445-1.827-2.852-2.655-3.416c-1.316-0.885-3.587-1.432-5.018-1.553
			c-1.186-0.1-1.837-0.268-2.55-0.521c-0.934-0.326-1.353-0.782-1.62-1.046c-0.26-0.263-0.657-0.082-0.611,0.221
			c0.186,1.214,1.031,2.632,1.031,2.632c-0.262-0.1-0.46,0.193-0.395,0.455c0.313,1.266,0.788,1.908,0.788,1.908
			c-0.46-0.096-0.524,0.363-0.524,0.529c0,1.381,0.953,2.371,1.185,2.564c0.227,0.195,0.13,0.266-0.034,0.328
			c-0.484,0.193-0.4,0.496-0.263,0.658c0.378,0.471,1.842,1.547,2.63,1.906c2.023,0.926,4.474,0.791,5.563,0.691
			c1.085-0.1,1.87,0.393,1.87,0.393c-0.161,0.066-3.85,2.469-4.245,2.67c-0.394,0.195-0.722,0.064-0.921-0.035
			c-0.578-0.287-1.113-0.891-1.381-1.15c-0.263-0.262-0.493-0.131-0.493,0.162c0,0.295-0.065,1.58-0.031,1.908
			c0.031,0.33-0.199,0.463-0.333,0.521c-3.918,1.967-6.05,1.225-6.638,1.154C3.176,49.56,2.721,49.56,2.59,49.923
			c-0.129,0.361,0.214,0.672,1.582,1.225c1.623,0.66,2.697,1.469,3.646,2.063c0.738,0.463,1.12,0.068,1.381-0.195
			c2.141-2.139,4.371-3.48,5.013-3.848c0.118-0.066,0.302-0.063,0.356-0.043c0.498,0.219,0.687,0.699,0.687,0.699
			c0.211,0.689-0.185,1.092-0.6,1.941c-0.57,1.191-0.679,2.137-0.549,2.566c0.134,0.428,0.472,0.301,0.603,0.205
			c0.127-0.096,0.214-0.037,0.217,0.129c0.016,1.908,1.054,3.115,1.315,3.346c0.264,0.232,0.298,0.232,0.462,0.066
			c0.163-0.166,0.329-0.492,0.329-0.492c0.096,0.23,0.521,1.217,1.114,1.875c0.595,0.658,0.841,1.457,0.986,2.074
			c0.109,0.441,0.198,0.49,0.432,0.096c0.229-0.395,1.231-2.41,1.231-2.41c0.46,0.33,0.542,0.402,0.769,0.174
			c1.369-1.363,1.469-4.104,1.469-4.4c0-0.295,0-0.328,0.198-0.229c0.196,0.098,0.345,0,0.356-0.229
			c0.034-0.428,0.267-1.742-0.52-3.42c-1-2.117-2.635-2.367-4.804-2.469c-2.533-0.117-2.483-0.568-2.483-0.568
			c1.875-1.184,5.82-3.451,6.18-3.619c0.363-0.16,0.466-0.307,1.087-0.066C23.493,44.567,24.082,44.966,24.2,45.476"/>
		<path fill="#FFFFFF" d="M33.604,41.304c3.195,0.527,5.385,1.797,7.385,3.744c2.237,2.17,3.289,4.061,4.379,5.902
			c0,0-2.913-3.691-5.479-6.123C37.283,42.353,34.792,41.698,33.604,41.304"/>
		<path fill="#FFFFFF" d="M15.993,48.825c0,0,2.349,0.395,3.38,4.822c0.787,3.395,0.179,5.857,0.179,5.857s0.043-3.119-0.304-4.557
			C18.119,50.259,15.993,48.825,15.993,48.825"/>
		<path fill="#FFFFFF" d="M6.974,33.171c0,0,1.573,2.836,4.215,4.752c2.583,1.883,0.659,0.598,4.177,3.027
			c2.203,1.52,2.816,2.137,2.816,2.137L16.05,41.8c0,0-2.235-1.309-4.496-2.963C8.522,36.62,6.974,33.171,6.974,33.171"/>
		<path fill="#FFFFFF" d="M24.514,44.161c0,0,2.087,1.135,3.22,5.732c0.956,3.863,3.846,6.752,3.846,6.752s-1.113-0.627-2.549-2.49
			c-1.437-1.854-2.054-5.508-2.48-6.727C25.859,45.456,24.514,44.161,24.514,44.161"/>
		<path fill="#770C29" d="M30.842,1.873c1.542,0.617,2.274,1.938,2.237,3.684c-0.04,1.907-0.953,3.39-1.281,3.716
			c-0.331,0.329-0.726,0.296-1.286,0.1c-0.559-0.2-1.282-0.525-2.302-0.525c-1.016,0-1.979,0.422-2.565,1.017
			c0,0-1.48-0.068-2.499,0.328c-1.02,0.397-1.384,0.629-1.643,0.792c0,0-1.076-0.052-2.042-0.528
			c-1.123-0.55-3.583-2.236-3.583-4.703c0-2.466,2.109-3.332,3.447-3.305c1.051,0.026,1.908,0.276,2.829,0.504
			c0.921,0.23,1.62,0.276,2.079,0.234c0.641-0.059,1.542-0.229,2.235-0.72c0.545-0.388,1.52-0.782,2.266-0.86
			C29.563,1.529,30.349,1.674,30.842,1.873"/>
		<path fill="#770C29" d="M36.532,4.438c1.78,0,2.71,0.839,3.324,2.601c0.262,0.754,0.487,2.118,2.202,2.498
			c2.124,0.465,3.306,1.137,3.981,2.172c0.542,0.827,0.529,2.136,0.292,2.923c-0.227,0.791-0.394,1.284,0.263,2.008
			c0.568,0.624,0.96,1.645,0.462,2.993c-0.487,1.348-1.814,2.527-4.374,2.665c-1.217,0.065-2.963-0.179-2.858-0.79
			c0.032-0.195,0.147-0.357,0.609-0.879c0.319-0.37,0.537-0.926,0.609-1.458c0.112-0.844-0.299-1.691-0.972-2.425
			c-0.366-0.395-0.477-0.762-0.246-1.484c0.232-0.725,0.293-1.155,0.293-2.011c0-1.052-0.694-2.413-1.872-2.786
			c-1.447-0.459-3.03-0.206-4.28,0.88c0,0-1.117-0.79-1.117-2.334C32.849,7.461,34.461,4.438,36.532,4.438"/>
		<path fill="#B71237" d="M44.901,24.242c0.665,1.022,0.72,3.256-0.36,5.034c-1.574,2.599-4.061,2.359-4.061,2.359
			c-0.26,3.715-3.469,4.448-5.217,4.448c-4.602,0-4.717-3.626-4.717-4.021c0-0.392-0.232-0.46-0.394-0.331
			c-1.115,0.895-1.645,2.503-1.709,3.818c-0.067,1.316,0.23,2.303,0.462,2.695c0.713,1.229,1.805,1.941,4.207,1.35
			c2.399-0.594,4.524-0.801,6.53-0.504c2.012,0.301,2.956-0.314,3.308-1.371c0.31-0.949,1.021-1.713,2.051-2.264
			c2.861-1.51,2.355-3.752,2.158-4.742c-0.199-0.963,0.41-1.438,0.819-1.905c1.607-1.856,1.944-4.247,0.885-5.592
			c-1.053-1.352-3.016-1.025-4.074-0.854c-0.626,0.1-1.281,0.394-1.548,0.524C43.241,22.887,44.163,23.101,44.901,24.242"/>
		<path fill="#B71237" d="M28.344,32.426c-0.05,1.265-0.576,4.95-2.631,6.146c-0.853,0.502-2.765,0.795-4.638,0.072
			c-1.877-0.729-2.768-1.992-3.258-2.533c-0.934-1.045-2.183-2.332-5.262-2.799c-2.9-0.443-5.454-1.667-5.007-4.834
			c0.381-2.742,3.05-3.383,4.526-3.341c0.215,0.008,0.615,0.178,0.742,0.376c0.359,0.567,1.172,1.718,2.144,2.326
			c1.318,0.826,2.855,1.098,4.337,1.104c0,0,0.7,3.028,3.091,4.044C24.349,33.812,26.551,33.485,28.344,32.426"/>
		<path fill="#B71237" d="M12.097,6.509c1.901,0,4.673,1.119,5.131,3.879c0,0-1.893-0.844-2.928,0.46
			c-0.918,1.156-0.301,2.602-0.068,3.358c0.229,0.757,0.419,1.453,0.229,2.104c-0.213,0.731-0.573,1.193-1.842,1.974
			c-1.105,0.687-1.385,1.848-1.443,2.601c-0.118,1.384,0.363,2.858,1.412,3.678c0,0-1.629,0.637-3.388-0.061
			c-1.946-0.773-3.025-2.438-3.025-4.505c0-2.075,1.182-3.193,1.58-3.621c0.395-0.427,0.822-1.115,0.822-1.808
			c0-0.688-0.376-1.212-0.559-1.581c-0.313-0.616-0.673-1.634-0.348-3.082C7.927,8.786,9.268,6.509,12.097,6.509"/>
		<path fill="#B71237" d="M15.416,12.495c-0.334,0.896-0.127,1.447,0.169,2.205c0.294,0.758,0.557,1.739-0.727,2.794
			c-1.285,1.051-2.551,1.848-2.451,3.923c0.098,2.07,1.569,4.86,3.567,5.938c1.533,0.834,2.636,0.89,3.785,0.791
			c0,0,1.007,2.892,3.339,3.889c1.63,0.697,4.138,0.956,6.397-0.925c0.792-0.657,1.726-2.491,1.561-4.102
			c0,0-2.762,0.229-5.525-0.726c-2.762-0.953-5.558-3.023-6.444-5.524c-0.888-2.499-1.201-6.32,1.526-9.185
			c0,0-1.071-0.624-2.268-0.725C17.212,10.763,15.879,11.28,15.416,12.495"/>
		<path fill="#770C29" d="M33.313,12.792c-0.741-1.44-2.319-3.426-5.002-3.289c-0.803,0.041-1.908,0.558-2.302,1.052
			c0,0-1.272-0.03-2.207,0.231c-1.197,0.337-2.444,1.059-3.304,2.571c-0.853,1.513-1.167,2.692-1.167,4.171
			c0,2.079,1.077,4.648,3.124,6.085c0.331,0.229,0.414-0.058,0.346-0.617c-0.065-0.561-0.447-2.838,0.627-5.034
			c1.231-2.526,3.356-4.078,5.687-4.833C30.512,12.674,32.422,12.658,33.313,12.792"/>
		<path fill="#B71237" d="M28.605,14.042c-2.072,0.955-4.946,3.648-5.131,7.072c-0.161,3.022,1.185,4.864,5.23,5.029
			c4.045,0.162,8.061-2.665,8.224-2.763c0.164-0.099,0.132-0.33-0.33-0.229c-0.459,0.1-3.252,0.462-4.936,0.396
			c-1.675-0.069-3.543-0.593-4.371-1.878C26.383,20.265,26.073,17.889,28.605,14.042"/>
		<path fill="#B71237" d="M35.026,15.026c1.143,1.309,0.985,3.078-0.133,5.052c-1.115,1.973-2.687,2.434-3.704,2.367
			c-1.021-0.064-1.425-0.199-1.892-0.414c0,0,1.848-0.131,2.986-1.47c0.804-0.943,0.697-2.175,0.221-2.984
			c-0.288-0.483-0.753-0.861-1.098-1.072c-0.809-0.503-2.309-0.688-3.096-0.393c0,0,1.251-2.202,3.783-2.202
			C33.313,13.91,34.302,14.206,35.026,15.026"/>
		<path fill="#B71237" d="M28.348,16.439c-0.592,0.531-0.972,1.385-1.024,2.143c-0.063,0.904,0.23,1.773,1.02,2.233
			c0.789,0.46,2.181,0.235,2.78-0.321c0.674-0.625,0.692-1.399,0.659-1.654c-0.056-0.432-0.367-0.855-0.975-0.732
			c-0.474,0.099-0.854,0.083-1.132,0.017C29.355,18.053,28.587,17.8,28.348,16.439"/>
		<path fill="#770C29" d="M38.239,11.212c1.151,0.604,1.351,1.775,0.995,3.089c-0.36,1.318-0.563,1.844,0.294,2.962
			c0.853,1.121,0.495,2.698,0,3.355c-0.493,0.657-1.517,1.807-3.586,2.005c-2.072,0.198-2.47-0.1-2.47-0.1s1.464-0.911,2.515-2.729
			c0.676-1.169,1.038-2.524,0.71-3.812c-0.476-1.871-2.435-2.405-3.259-2.405c0,0,0.364-1.61,1.583-2.2
			C36.235,10.786,37.553,10.848,38.239,11.212"/>
		<path fill="#B71237" d="M31.568,26.244c0.236,0.654,0.599,1.622-0.037,3.06c-0.538,1.22-0.724,3.355,0.793,4.799
			c1.514,1.447,3.967,1.105,4.98,0.598c1.185-0.592,1.645-1.74,1.893-3.03c0.121-0.635,0.454-0.868,1.214-0.889
			c0.767-0.018,2.32-0.262,3.307-1.869c0.791-1.28,1.12-3.154,0.315-4.444c-0.903-1.448-3.329-1.82-4.346-1.713
			c-0.622,0.066-1.084,0.229-1.479,0.595C37.816,23.709,35.447,25.882,31.568,26.244"/>
		<path fill="#00402D" d="M31.948,40.679c0.25-0.037,0.521-0.088,0.812-0.152c1.933-0.438,3.379-0.701,4.955-0.701
			c1.58,0,5.595,0.078,8.891,4.195c0.099,0.123,0.339,0.566,0.248,0.707c-0.068,0.105-0.258,0.07-0.626,0.051
			c0,0,1.13,1.793,1.443,3.688c0.046,0.262,0,0.43-0.261,0.43c-0.265,0-0.714-0.059-0.714-0.059s0.806,2.271,0.449,5.107
			c-0.021,0.189-0.133,0.34-0.258,0.355c0,0-0.798-2.131-1.52-3.35c-1.096-1.836-2.142-3.732-4.379-5.904
			c-2-1.945-4.189-3.215-7.384-3.742c-0.475-0.104-2.583-0.572-2.583-0.572C31.301,40.737,31.605,40.722,31.948,40.679"/>
		<path fill="#00402D" d="M19.552,59.505c0,0,0.609-3-0.266-6.188c-1.155-4.223-3.293-4.492-3.293-4.492s-0.328-0.16-0.211-0.746
			c0,0-0.05,0.451,2.482,0.568c2.168,0.102,3.804,0.352,4.803,2.469c0.788,1.678,0.555,2.992,0.52,3.42
			c-0.012,0.229-0.161,0.328-0.356,0.229c-0.198-0.1-0.198-0.066-0.198,0.229c0,0.297-0.1,3.037-1.469,4.4
			c-0.226,0.229-0.309,0.156-0.769-0.172c0,0-1.002,2.014-1.232,2.408c-0.158,0.273-0.247,0.332-0.329,0.203
			C19.235,61.833,19.35,60.485,19.552,59.505"/>
		<path fill="#00402D" d="M6.093,32.035c0,0,0.271-0.153,0.483,0.074c0.262,0.264,0.687,0.718,1.621,1.044
			c0.714,0.254,1.364,0.422,2.55,0.521c1.431,0.121,3.702,0.668,5.017,1.553c0.829,0.564,2.277,1.971,2.657,3.416
			c0.256,0.951,0.357,2.059,0.267,2.672c-0.089,0.615-0.108,1.732,0.221,2.367l-0.725-0.596c0,0-0.619-0.611-2.817-2.137
			c-3.136-2.182-2.06-1.436-4.176-3.027c-0.561-0.418-2.566-1.916-4.215-4.752C6.847,32.95,6.344,32.16,6.093,32.035"/>
		<path fill="#00402D" d="M24.436,43.366c0,0,3.107-0.398,5.007,0.445c1.778,0.791,2.6,2.074,2.792,2.637
			c0.151,0.447,0.14,0.52-0.273,0.58c-0.43,0.063-0.562,0.098-0.134,0.461c0.428,0.361,1.663,1.541,1.875,2.826
			c0.064,0.381,0.058,0.414-0.327,0.363c-0.264-0.035-0.427,0-0.264,0.33c0.166,0.328,0.613,1.414,0.727,2.762
			c0.031,0.393,0,0.523-0.271,0.59c-0.256,0.07-0.564,0.625-0.256,2.168c0.16,0.854,0.57,1.33,0.804,1.625
			c0.146,0.191,0.157,0.365,0.053,0.449c0,0-1.273-0.535-2.589-1.957c0,0-2.937-3.012-3.846-6.752
			c-1.113-4.598-3.22-5.732-3.22-5.732C24.259,43.909,24.094,43.53,24.436,43.366"/>
	</g>
</g>
</svg>
